HIERARCHY
ROOT Hips
{
	OFFSET	0.00	0.00	0.00
	CHANNELS 6 Xposition Yposition Zposition Zrotation Xrotation Yrotation
	JOINT Chest
	{
		OFFSET	0.00	6.27	0.00
		CHANNELS 3 Zrotation Xrotation Yrotation
		JOINT Neck
		{
			OFFSET	0.00	14.29	0.00
			CHANNELS 3 Zrotation Xrotation Yrotation
			JOINT Head
			{
				OFFSET	0.00	2.63	0.00
				CHANNELS 3 Zrotation Xrotation Yrotation
				End Site
				{
					OFFSET	0.00	4.49	0.00
				}
			}
		}
		JOINT LeftCollar
		{
			OFFSET	1.12	11.36	1.87
			CHANNELS 3 Zrotation Xrotation Yrotation
			JOINT LeftUpArm
			{
				OFFSET	4.57	2.02	-1.82
				CHANNELS 3 Zrotation Xrotation Yrotation
				JOINT LeftLowArm
				{
					OFFSET	0.22	-10.35	-0.06
					CHANNELS 3 Zrotation Xrotation Yrotation
					JOINT LeftHand
					{
						OFFSET	0.09	-10.35	2.18
						CHANNELS 3 Zrotation Xrotation Yrotation
						End Site
						{
							OFFSET	0.131837	-6.692379	1.711456
						}
					}
				}
			}
		}
		JOINT RightCollar
		{
			OFFSET	-1.12	11.36	1.87
			CHANNELS 3 Zrotation Xrotation Yrotation
			JOINT RightUpArm
			{
				OFFSET	-4.70	2.03	-1.82
				CHANNELS 3 Zrotation Xrotation Yrotation
				JOINT RightLowArm
				{
					OFFSET	-0.26	-10.43	-0.06
					CHANNELS 3 Zrotation Xrotation Yrotation
					JOINT RightHand
					{
						OFFSET	0.00	-10.26	2.18
						CHANNELS 3 Zrotation Xrotation Yrotation
						End Site
						{
							OFFSET	-0.14	-6.67	1.71
						}
					}
				}
			}
		}
	}
	JOINT LeftUpLeg
	{
		OFFSET	3.91	0.00	0.00
		CHANNELS 3 Zrotation Xrotation Yrotation
		JOINT LeftLowLeg
		{
			OFFSET	-0.44	-17.57	1.70
			CHANNELS 3 Zrotation Xrotation Yrotation
			JOINT LeftFoot
			{
				OFFSET	-0.04	-17.20	-1.48
				CHANNELS 3 Zrotation Xrotation Yrotation
				End Site
				{
					OFFSET	0.00	-3.93	5.23
				}
			}
		}
	}
	JOINT RightUpLeg
	{
		OFFSET	-3.91	0.00	0.00
		CHANNELS 3 Zrotation Xrotation Yrotation
		JOINT RightLowLeg
		{
			OFFSET	0.43	-17.62	1.70
			CHANNELS 3 Zrotation Xrotation Yrotation
			JOINT RightFoot
			{
				OFFSET	0.00	-17.14	-1.48
				CHANNELS 3 Zrotation Xrotation Yrotation
				End Site
				{
					OFFSET	0.00	-4.04	5.23
				}
			}
		}
	}
}
MOTION
Frames: 27
Frame Time: 0.04166667
116.87	4.85	3.95	10.34	3.84	102.35	-0.60	-10.77	-3.81	-4.74	23.65	-17.17	-3.16	17.90	0.09	-16.69	-7.86	-7.07	25.89	7.78	-53.83	-3.51	1.68	4.15	-15.58	2.91	-3.27	3.14	0.17	8.66	-15.26	16.15	19.12	-3.67	5.80	1.18	1.74	2.40	0.37	-4.93	10.03	6.42	-3.29	5.83	-11.25	4.97	-6.81	-0.07	-5.26	-15.34	2.88	-1.26	66.46	-5.62	-3.59	24.31	6.83
117.35	4.98	3.94	10.74	2.35	103.29	-0.99	-10.18	-5.64	-2.20	23.65	-17.21	-3.94	17.68	0.10	-15.08	-5.46	-8.00	25.70	4.28	-56.16	-3.48	1.45	4.10	-14.75	2.86	-3.10	5.17	0.38	7.26	-15.30	15.73	13.43	-4.77	5.91	1.44	0.38	2.40	0.08	-3.16	10.57	4.27	-3.16	5.83	-10.13	4.82	-7.13	-0.04	-3.04	-16.91	4.66	-2.11	65.45	-9.87	-8.42	21.68	8.99
117.57	5.19	3.97	11.63	1.79	104.07	-2.90	-7.63	-6.90	1.39	22.56	-17.72	-4.46	17.46	0.09	-12.99	-1.09	-8.30	26.33	-2.07	-57.13	-3.10	1.16	3.21	-7.23	2.56	-1.53	8.73	1.77	4.74	-16.18	13.21	17.18	-5.18	6.27	1.38	4.79	2.44	1.03	-2.37	13.38	2.25	-2.75	2.20	-8.86	4.17	-5.51	-0.18	-1.14	-17.28	7.30	-2.47	62.81	-14.13	-10.85	20.10	9.89
117.99	5.33	3.98	11.98	0.33	104.30	-2.81	-6.62	-7.72	3.60	22.13	-17.83	-4.92	17.16	0.07	-10.94	0.42	-9.28	25.76	-4.76	-58.38	-2.92	0.23	3.09	-5.94	2.53	-1.26	10.20	1.17	3.78	-15.83	13.49	14.72	-5.63	6.40	1.41	5.15	2.45	1.10	-0.76	13.97	1.28	-2.61	1.76	-7.97	4.15	-5.41	-0.19	1.33	-17.86	10.97	-1.89	59.35	-14.58	-10.89	18.66	9.66
118.22	5.46	3.97	12.34	-1.01	103.93	-2.39	-5.50	-8.08	5.29	21.64	-17.56	-5.47	16.59	0.03	-8.74	1.17	-10.39	24.80	-6.27	-62.53	-2.01	-0.94	2.69	-6.54	2.54	-1.39	11.06	0.29	3.23	-15.29	14.10	12.77	-6.02	6.46	1.36	6.18	2.47	1.32	0.52	14.86	0.81	-2.44	0.92	-6.97	4.14	-5.22	-0.20	3.36	-17.79	14.44	-1.07	54.81	-13.39	-10.39	17.19	9.19
118.45	5.50	3.91	11.96	-3.20	102.80	0.25	-6.75	-8.55	4.82	22.65	-16.22	-5.88	15.85	-0.05	-6.88	-3.76	-12.75	21.31	-0.87	-62.70	-2.02	-2.18	2.70	-5.45	2.52	-1.16	8.02	-4.04	5.27	-12.05	19.61	11.25	-6.20	6.54	1.36	6.10	2.47	1.31	2.23	13.53	1.69	-2.42	3.06	-6.03	4.45	-6.70	-0.08	5.68	-18.22	17.76	-0.21	49.62	-10.65	-9.73	15.90	8.72
118.64	5.60	3.87	11.96	-4.23	101.26	1.03	-5.93	-8.52	5.43	22.29	-14.98	-6.51	15.30	-0.12	-6.19	-3.20	-13.34	21.15	-1.62	-61.87	-1.98	-3.10	2.65	-4.47	2.50	-0.95	8.52	-4.01	4.91	-12.28	19.06	11.71	-6.28	6.57	1.40	5.39	2.45	1.16	2.72	14.82	3.02	-2.25	1.26	-5.32	4.27	-6.25	-0.12	6.50	-17.65	19.25	0.45	43.58	-8.03	-8.88	14.97	8.25
119.00	5.68	3.80	11.76	-4.91	99.25	1.60	-5.17	-8.41	5.68	21.92	-13.32	-7.16	14.96	-0.18	-5.75	-2.51	-13.55	21.10	-2.31	-60.89	-2.07	-3.74	2.71	-3.90	2.49	-0.83	8.96	-3.66	4.46	-12.83	17.93	12.69	-6.34	6.57	1.42	4.73	2.44	1.01	2.62	16.41	4.88	-2.09	-1.25	-4.89	3.92	-5.37	-0.19	6.66	-16.80	19.16	0.97	36.94	-5.19	-7.47	14.49	7.67
119.33	5.73	3.71	11.31	-5.08	97.05	1.90	-4.54	-8.62	5.31	21.54	-11.04	-7.67	14.74	-0.22	-5.68	-1.86	-13.22	21.06	-2.83	-60.15	-2.11	-3.95	2.82	-4.37	2.50	-0.93	9.19	-2.99	4.09	-13.50	16.16	14.09	-6.51	6.70	1.44	4.84	2.44	1.04	1.73	18.26	6.97	-1.92	-4.78	-4.66	3.54	-3.79	-0.29	5.94	-15.75	16.56	1.44	29.85	-1.72	-5.21	14.69	6.87
119.48	5.76	3.67	11.10	-5.14	95.99	1.95	-4.23	-8.68	5.23	21.38	-9.99	-7.92	14.62	-0.25	-5.55	-1.61	-13.17	20.99	-2.99	-59.77	-2.13	-4.06	2.87	-4.59	2.50	-0.97	9.35	-2.80	3.95	-13.74	15.47	14.69	-6.58	6.76	1.45	4.87	2.44	1.04	1.08	20.00	8.03	-1.77	-8.22	-4.56	3.24	-2.14	-0.38	5.51	-14.72	14.57	1.68	25.53	0.39	-4.33	15.29	6.60
119.66	5.73	3.49	10.10	-4.24	91.66	1.76	-4.06	-8.44	3.73	21.10	-5.94	-8.52	14.49	-0.29	-6.66	-1.07	-12.08	21.29	-2.48	-59.42	-2.19	-3.66	2.96	-5.25	2.51	-1.11	9.07	-1.86	3.76	-14.37	12.85	15.45	-6.93	7.20	1.53	5.21	2.45	1.12	-1.74	20.54	12.88	-1.81	-9.19	-5.40	3.28	-2.48	-0.36	4.19	-12.39	6.69	2.37	15.20	6.08	1.40	15.94	4.47
120.12	5.60	3.40	9.06	-4.06	88.29	2.71	-5.71	-7.86	1.87	22.03	-3.11	-8.89	14.37	-0.32	-7.56	-3.38	-12.19	20.15	1.72	-59.74	-2.19	-3.24	2.98	-5.68	2.52	-1.21	7.26	-3.13	5.03	-13.50	14.46	15.22	-7.05	7.47	1.61	5.18	2.45	1.11	-3.25	20.36	16.62	-1.88	-9.19	-6.13	3.11	-3.83	-0.27	4.67	-10.39	1.35	2.78	8.08	9.92	4.01	16.02	3.47
120.37	5.45	3.31	8.28	-3.53	85.07	3.51	-6.49	-7.39	-0.17	22.17	-0.05	-9.13	14.16	-0.37	-9.00	-4.49	-11.39	19.95	4.11	-60.13	-2.06	-2.82	2.95	-6.62	2.54	-1.40	6.00	-3.05	5.62	-13.49	13.96	15.51	-7.03	7.61	1.71	4.50	2.43	0.96	-5.17	20.22	20.36	-1.94	-9.18	-6.84	3.56	-5.11	-0.20	5.33	-7.41	-0.84	2.71	-0.54	11.14	7.06	16.99	2.19
120.65	5.42	3.24	8.79	-1.48	82.89	1.00	-3.98	-7.38	-0.17	20.17	2.18	-9.28	13.80	-0.43	-9.92	-1.42	-9.27	21.92	0.28	-55.57	-2.69	-1.65	3.05	-4.74	2.50	-1.01	7.88	-0.06	3.64	-15.51	8.19	17.17	-6.81	7.53	1.77	4.17	2.43	0.89	-8.31	20.75	22.61	-1.93	-9.19	-6.78	4.01	-6.08	-0.14	4.61	-3.43	-2.89	2.40	-9.11	10.92	6.22	18.06	2.42
120.88	5.23	3.20	8.43	-0.93	80.25	1.54	-4.07	-7.64	-2.12	19.81	5.39	-9.41	13.34	-0.52	-11.35	-2.54	-8.63	21.83	2.66	-54.56	-2.89	-1.03	3.12	-4.80	2.51	-1.02	6.79	0.41	4.12	-15.75	6.91	18.75	-6.53	7.34	1.76	3.69	2.42	0.79	-10.05	20.66	25.40	-1.92	-9.19	-6.68	4.19	-6.94	-0.07	5.55	-4.09	-6.24	2.41	-9.11	10.98	1.83	15.16	4.33
120.88	5.06	3.14	8.44	-0.09	78.42	1.32	-3.21	-8.27	-3.36	18.83	7.96	-9.56	12.77	-0.62	-12.93	-2.20	-7.77	22.72	3.00	-57.60	-2.92	-0.99	3.40	-7.22	2.56	-1.53	6.81	2.17	3.69	-16.77	3.61	20.88	-6.25	7.13	1.70	3.75	2.42	0.80	-11.89	20.72	27.21	-1.90	-9.19	-6.45	4.75	-7.47	-0.01	6.18	-4.29	-12.19	2.45	-9.11	11.43	-0.33	11.60	5.10
121.29	4.91	3.09	8.73	0.48	76.79	1.20	-2.24	-8.71	-4.36	18.06	10.00	-9.76	12.15	-0.75	-14.05	-2.43	-7.41	23.08	3.82	-56.30	-3.87	-0.26	3.97	-7.60	2.57	-1.61	6.44	3.12	3.67	-17.18	1.48	22.68	-5.93	6.91	1.63	3.76	2.42	0.81	-13.45	21.15	29.13	-1.91	-9.19	-6.57	5.12	-8.13	0.06	6.67	-4.07	-17.00	2.44	-9.11	11.33	-1.34	8.10	5.33
121.73	4.75	3.05	8.66	0.67	75.44	1.89	-2.08	-9.20	-5.67	17.76	11.84	-9.97	11.57	-0.87	-15.19	-3.12	-7.56	22.91	5.29	-51.47	-5.22	1.07	4.52	-5.86	2.53	-1.24	5.04	3.16	4.18	-16.80	0.80	24.13	-5.64	6.77	1.59	3.52	2.42	0.75	-14.51	21.39	30.90	-1.95	-9.19	-6.97	5.67	-9.02	0.17	7.23	-4.03	-19.82	2.44	-9.12	11.28	-3.24	5.27	5.65
121.85	4.61	3.03	8.86	0.80	74.20	2.35	-1.63	-9.44	-6.61	17.44	13.18	-10.11	11.18	-0.96	-16.32	-3.50	-7.45	23.28	6.12	-52.75	-6.02	1.34	5.13	-6.93	2.55	-1.47	4.56	3.86	4.35	-17.16	-0.43	25.40	-5.60	6.79	1.63	3.82	2.42	0.82	-15.54	21.95	32.92	-2.00	-9.18	-7.49	5.66	-9.86	0.26	7.01	-3.61	-19.51	2.35	-9.13	10.26	-4.11	3.81	5.72
122.39	4.49	3.03	9.04	0.90	73.18	2.54	-1.43	-9.51	-7.06	17.28	14.16	-10.26	11.19	-0.97	-16.79	-3.68	-7.43	23.29	6.76	-52.68	-6.49	1.64	5.41	-6.98	2.55	-1.48	4.31	4.13	4.40	-17.44	-0.86	26.17	-5.58	6.81	1.71	3.14	2.42	0.67	-16.41	22.61	34.68	-2.06	-9.17	-8.16	5.49	-10.66	0.32	6.92	-3.01	-19.88	2.26	-9.15	9.24	-4.34	2.85	5.69
122.99	4.40	3.04	8.97	0.96	72.50	2.70	-1.79	-9.63	-7.24	17.29	15.00	-10.49	11.48	-0.94	-16.60	-3.97	-7.38	22.92	7.72	-59.98	-5.82	0.43	5.72	-12.63	2.76	-2.66	4.09	4.02	4.43	-17.55	-0.57	26.87	-5.64	6.86	1.79	3.11	2.41	0.67	-17.03	23.18	36.22	-2.13	-9.17	-8.96	5.19	-11.46	0.37	7.09	-2.46	-21.16	2.19	-9.16	8.48	-5.02	1.70	5.70
123.46	4.32	3.08	8.73	1.00	72.05	2.79	-2.58	-9.82	-7.20	17.46	15.73	-10.85	11.85	-0.89	-16.24	-4.42	-7.44	22.47	8.93	-61.10	-5.37	-0.01	5.65	-14.02	2.83	-2.95	3.87	3.32	4.65	-17.40	0.59	26.04	-5.81	6.97	1.82	3.46	2.42	0.74	-17.57	23.67	37.80	-2.21	-9.16	-9.85	5.04	-12.38	0.44	7.30	-1.91	-22.35	2.10	-9.17	7.49	-5.57	0.74	5.68
124.15	4.25	3.12	8.42	1.02	71.94	2.67	-3.35	-9.78	-6.61	17.51	15.81	-11.38	12.15	-0.88	-15.85	-3.89	-7.62	22.43	9.03	-61.16	-5.05	-0.42	5.47	-13.49	2.80	-2.84	4.70	3.58	4.26	-18.04	0.80	24.00	-5.98	7.07	1.79	3.87	2.43	0.83	-17.85	24.26	38.51	-2.25	-9.16	-10.30	4.74	-13.27	0.48	7.58	-1.39	-23.86	2.03	-9.18	6.67	-6.01	1.17	5.78
124.69	4.17	3.17	7.96	0.81	72.20	2.77	-4.15	-9.91	-5.84	17.48	15.63	-11.93	12.29	-0.89	-15.25	-3.51	-8.01	22.12	9.08	-60.57	-4.91	-0.74	5.34	-12.55	2.75	-2.65	5.32	2.94	4.08	-18.38	1.98	21.54	-6.13	7.12	1.71	4.31	2.43	0.92	-17.68	24.93	38.34	-2.26	-9.15	-10.42	4.60	-14.22	0.54	8.43	-1.23	-26.79	2.13	-9.16	7.84	-8.68	1.27	6.14
125.24	4.07	3.22	7.32	0.32	72.57	3.36	-5.03	-10.26	-5.23	17.39	15.68	-12.43	12.31	-0.92	-14.42	-3.43	-8.30	21.40	9.12	-59.96	-4.81	-1.04	5.26	-11.93	2.73	-2.52	5.86	2.08	4.26	-18.89	3.46	18.63	-6.20	7.00	1.72	1.73	2.40	0.37	-17.13	25.57	37.88	-2.25	-9.16	-10.28	4.36	-15.20	0.58	9.47	-1.42	-29.00	2.25	-9.14	9.25	-12.22	2.88	6.97
126.02	3.96	3.29	6.77	-0.50	72.62	4.28	-5.85	-10.37	-4.60	17.48	15.90	-12.94	12.17	-1.00	-13.31	-3.89	-8.72	20.23	9.72	-59.37	-4.48	-1.27	4.98	-11.12	2.69	-2.35	6.21	0.72	4.77	-19.21	5.41	14.17	-6.53	6.87	1.69	-0.20	2.40	-0.04	-16.45	26.39	37.53	-2.22	-9.16	-9.86	4.19	-16.14	0.63	10.49	-1.32	-28.90	2.25	-9.14	9.23	-14.75	5.10	7.98
126.66	3.82	3.36	6.16	-1.58	72.55	5.42	-6.84	-10.21	-3.82	17.82	15.78	-13.43	12.10	-1.05	-12.14	-4.55	-9.34	18.99	10.65	-59.22	-3.97	-1.52	4.62	-10.71	2.67	-2.26	6.54	-1.05	5.29	-19.39	7.87	14.61	-6.83	6.96	1.67	-0.47	2.40	-0.10	-15.50	27.32	36.65	-2.12	-9.17	-8.81	3.92	-17.24	0.65	10.27	-3.43	-27.94	2.32	-3.44	8.61	-17.13	3.95	8.13
